<svg width="19" height="19" viewBox="0 0 19 19" fill="none" xmlns="http://www.w3.org/2000/svg">
<path d="M12.0254 9.23407C12.8549 9.72224 13.8298 9.99579 14.8555 9.99579C15.7164 9.99576 16.5561 9.79589 17.3047 9.43231V15.8845C17.3045 17.301 16.2736 18.4764 14.9209 18.7018V13.5475C14.9209 12.7586 14.2812 12.1188 13.4922 12.1188H12.0635C11.2747 12.119 10.6357 12.7587 10.6357 13.5475V18.7409H3.94531C2.36749 18.7409 1.0881 17.4621 1.08789 15.8845V9.43231C1.83643 9.79573 2.67641 9.99579 3.53711 9.99579C4.56264 9.99574 5.53677 9.72215 6.36621 9.23407C7.19575 9.72224 8.17059 9.99579 9.19629 9.99579C10.2218 9.99575 11.1959 9.72214 12.0254 9.23407ZM3.49219 12.1188C3.09795 12.119 2.77854 12.4385 2.77832 12.8327V14.9763C2.7785 15.3706 3.09793 15.69 3.49219 15.6901H7.77832C8.17263 15.69 8.49201 15.3706 8.49219 14.9763V12.8327C8.49197 12.4385 8.17261 12.1189 7.77832 12.1188H3.49219ZM3.53711 0.463562C7.98693 -0.157285 10.465 -0.151721 14.8555 0.463562C17.6847 1.48962 18.3925 4.15047 18.3926 5.00555C18.3926 6.7763 16.8088 8.2115 14.8555 8.21161C13.6985 8.21161 12.6707 7.70798 12.0254 6.92938C11.3801 7.70793 10.3532 8.21154 9.19629 8.21161C8.03926 8.21161 7.01153 7.70798 6.36621 6.92938C5.72095 7.70792 4.69402 8.21153 3.53711 8.21161C1.58367 8.21161 0 6.77637 0 5.00555C4.8022e-05 4.15045 0.707591 1.48955 3.53711 0.463562Z" fill="currentColor"/>
<path d="M12.0254 9.23407C12.8549 9.72224 13.8298 9.99579 14.8555 9.99579C15.7164 9.99576 16.5561 9.79589 17.3047 9.43231V15.8845C17.3045 17.301 16.2736 18.4764 14.9209 18.7018V13.5475C14.9209 12.7586 14.2812 12.1188 13.4922 12.1188H12.0635C11.2747 12.119 10.6357 12.7587 10.6357 13.5475V18.7409H3.94531C2.36749 18.7409 1.0881 17.4621 1.08789 15.8845V9.43231C1.83643 9.79573 2.67641 9.99579 3.53711 9.99579C4.56264 9.99574 5.53677 9.72215 6.36621 9.23407C7.19575 9.72224 8.17059 9.99579 9.19629 9.99579C10.2218 9.99575 11.1959 9.72214 12.0254 9.23407ZM3.49219 12.1188C3.09795 12.119 2.77854 12.4385 2.77832 12.8327V14.9763C2.7785 15.3706 3.09793 15.69 3.49219 15.6901H7.77832C8.17263 15.69 8.49201 15.3706 8.49219 14.9763V12.8327C8.49197 12.4385 8.17261 12.1189 7.77832 12.1188H3.49219ZM3.53711 0.463562C7.98693 -0.157285 10.465 -0.151721 14.8555 0.463562C17.6847 1.48962 18.3925 4.15047 18.3926 5.00555C18.3926 6.7763 16.8088 8.2115 14.8555 8.21161C13.6985 8.21161 12.6707 7.70798 12.0254 6.92938C11.3801 7.70793 10.3532 8.21154 9.19629 8.21161C8.03926 8.21161 7.01153 7.70798 6.36621 6.92938C5.72095 7.70792 4.69402 8.21153 3.53711 8.21161C1.58367 8.21161 0 6.77637 0 5.00555C4.8022e-05 4.15045 0.707591 1.48955 3.53711 0.463562Z" fill="currentColor"/>
</svg>
